<?xml version="1.0" encoding="UTF-8" standalone="no"?>
<!-- Created with Inkscape (http://www.inkscape.org/) -->

<svg
   width="1in"
   height="1in"
   viewBox="0 0 25.4 25.4"
   version="1.1"
   id="svg1"
   inkscape:version="1.3 (0e150ed6c4, 2023-07-21)"
   sodipodi:docname="download.svg"
   inkscape:export-filename="download.png"
   inkscape:export-xdpi="48"
   inkscape:export-ydpi="48"
   xmlns:inkscape="http://www.inkscape.org/namespaces/inkscape"
   xmlns:sodipodi="http://sodipodi.sourceforge.net/DTD/sodipodi-0.dtd"
   xmlns="http://www.w3.org/2000/svg"
   xmlns:svg="http://www.w3.org/2000/svg">
  <sodipodi:namedview
     id="namedview1"
     pagecolor="#484848"
     bordercolor="#666666"
     borderopacity="1.0"
     inkscape:showpageshadow="2"
     inkscape:pageopacity="0.0"
     inkscape:pagecheckerboard="0"
     inkscape:deskcolor="#d1d1d1"
     inkscape:document-units="mm"
     inkscape:zoom="3.0294785"
     inkscape:cx="51.659056"
     inkscape:cy="65.852918"
     inkscape:window-width="1343"
     inkscape:window-height="947"
     inkscape:window-x="1684"
     inkscape:window-y="47"
     inkscape:window-maximized="0"
     inkscape:current-layer="layer1" />
  <defs
     id="defs1" />
  <g
     inkscape:label="Layer 1"
     inkscape:groupmode="layer"
     id="layer1">
    <path
       id="path6"
       style="fill-opacity:0;stroke:#fcfcfc;stroke-width:0.919516;stroke-linecap:round;stroke-linejoin:miter;stroke-dashoffset:3.20556;stroke-opacity:1"
       transform="matrix(1.6312936,0,0,1.6312936,-8.5818868,-7.1262695)"
       d="m 13.05364,19.174994 c -0.01434,0 -6.0032992,-3.457726 -6.0104696,-3.470146 -0.00717,-0.01242 -0.00717,-6.9278722 -2e-7,-6.9402917 0.00717,-0.012419 5.9961278,-3.4701461 6.0104688,-3.4701461 0.01434,0 6.003299,3.4577264 6.010469,3.4701458 0.0072,0.01242 0.0072,6.927872 10e-7,6.940292 -0.0072,0.01242 -5.996129,3.470146 -6.010469,3.470146 z"
       sodipodi:nodetypes="ccccccc" />
    <path
       id="path2"
       style="fill:#ffffff;fill-opacity:1;stroke:#ffffff;stroke-width:1;stroke-linecap:round;stroke-linejoin:round;stroke-dasharray:none;stroke-dashoffset:3.20556;stroke-opacity:1"
       d="m 17.714004,13.018499 -5.00588,5.831173 -5.018911,-5.831173 h 3.218268 l -1e-6,-5.8315978 h 3.588254 l 10e-7,5.8315978 z"
       sodipodi:nodetypes="cccccccc" />
  </g>
</svg>
