<?xml version="1.0" encoding="UTF-8" standalone="no"?>
<!-- Created with Inkscape (http://www.inkscape.org/) -->

<svg
   width="1in"
   height="1in"
   viewBox="0 0 25.4 25.4"
   version="1.1"
   id="svg1"
   inkscape:version="1.3 (0e150ed6c4, 2023-07-21)"
   sodipodi:docname="library.svg"
   inkscape:export-filename="library.png"
   inkscape:export-xdpi="48"
   inkscape:export-ydpi="48"
   xmlns:inkscape="http://www.inkscape.org/namespaces/inkscape"
   xmlns:sodipodi="http://sodipodi.sourceforge.net/DTD/sodipodi-0.dtd"
   xmlns="http://www.w3.org/2000/svg"
   xmlns:svg="http://www.w3.org/2000/svg">
  <sodipodi:namedview
     id="namedview1"
     pagecolor="#484848"
     bordercolor="#666666"
     borderopacity="1.0"
     inkscape:showpageshadow="2"
     inkscape:pageopacity="0.0"
     inkscape:pagecheckerboard="0"
     inkscape:deskcolor="#d1d1d1"
     inkscape:document-units="mm"
     inkscape:zoom="2.8284272"
     inkscape:cx="40.305085"
     inkscape:cy="87.858015"
     inkscape:window-width="1209"
     inkscape:window-height="861"
     inkscape:window-x="1726"
     inkscape:window-y="140"
     inkscape:window-maximized="0"
     inkscape:current-layer="layer1" />
  <defs
     id="defs1" />
  <g
     inkscape:label="Layer 1"
     inkscape:groupmode="layer"
     id="layer1">
    <path
       style="fill-opacity:0;stroke:#ffffff;stroke-width:0.919516;stroke-linejoin:bevel;stroke-dashoffset:3.20556;stroke-linecap:round;stroke-opacity:1"
       d="m 13.053639,5.2944102 c 0.01434,0 6.003299,3.4577264 6.010469,3.4701458 0.0072,0.01242 0.0072,6.927872 10e-7,6.940292"
       id="path6"
       transform="matrix(1.6312936,0,0,1.6312936,-8.5818868,-7.1262695)" />
    <path
       style="fill-opacity:0;stroke:#ffffff;stroke-width:1.5;stroke-linecap:round;stroke-linejoin:bevel;stroke-dasharray:none;stroke-dashoffset:3.20556;stroke-opacity:1"
       d="m 12.712433,24.153775 c -0.02339,0 -9.793144,-5.640566 -9.804841,-5.660826 -0.011696,-0.02026 -0.011696,-11.3013941 -3e-7,-11.3216539"
       id="path10" />
    <path
       style="fill-opacity:0;stroke:#fdfdfd;stroke-width:1.5;stroke-linecap:round;stroke-linejoin:bevel;stroke-dasharray:none;stroke-dashoffset:3.20556;stroke-opacity:1"
       d="m 2.9081688,7.1687169 c 0.011697,0.02026 9.7808432,5.4480841 9.8042332,5.4480841 z"
       id="path9" />
    <path
       style="fill-opacity:0;stroke:#ffffff;stroke-width:1.5;stroke-linecap:round;stroke-linejoin:bevel;stroke-dasharray:none;stroke-dashoffset:3.20556;stroke-opacity:1"
       d="m 12.712816,12.620815 c 0.01175,0.02026 0.01175,11.513946 2e-6,11.534206"
       id="path7" />
    <path
       style="fill-opacity:0;stroke:#ffffff;stroke-width:1.5;stroke-linecap:round;stroke-linejoin:bevel;stroke-dashoffset:3.20556;stroke-opacity:1"
       d="m 10.33,2.885 c 0.02339,0 9.793144,5.6405669 9.80484,5.6608266 0.01175,0.020261 0.01175,11.3013934 2e-6,11.3216544"
       id="path3" />
    <path
       style="fill-opacity:0;stroke:#fefefe;stroke-width:1.5;stroke-linecap:round;stroke-linejoin:bevel;stroke-dashoffset:3.20556;stroke-opacity:1"
       d="m 7.948,4.26 c 0.02339,0 9.793144,5.6405669 9.80484,5.6608266 0.01175,0.020261 0.01175,11.3013934 2e-6,11.3216544"
       id="path4" />
    <path
       style="fill-opacity:0;stroke:#ffffff;stroke-width:1.5;stroke-linecap:round;stroke-linejoin:bevel;stroke-dashoffset:3.20556;stroke-opacity:1"
       d="m 5.566,5.635 c 0.02339,0 9.793144,5.640567 9.80484,5.660827 0.01175,0.02026 0.01175,11.301393 2e-6,11.321654"
       id="path5" />
  </g>
</svg>
